<svg width="64" height="64" viewBox="0 0 64 64" fill="none" xmlns="http://www.w3.org/2000/svg">
<g filter="url(#filter0_d_10_6)">
<path d="M56.2978 4.37426C36.801 3.29909 26.5472 3.22762 7.62046 4.36066C5.86053 4.46602 4.44956 5.87548 4.34224 7.63527C3.19698 26.4154 3.2374 36.6868 4.35559 56.3974C4.45567 58.1616 5.86546 59.5797 7.62928 59.6895C26.8372 60.8851 37.1496 60.9442 56.4082 59.6958C58.1625 59.5821 59.5639 58.1732 59.6698 56.4188C60.8471 36.9044 60.8514 26.6296 59.5943 7.63331C59.4778 5.87323 58.0584 4.47135 56.2978 4.37426Z" stroke="black" stroke-opacity="0.5" shape-rendering="crispEdges"/>
</g>
<path d="M59.0083 28.0219C37.4763 33.3478 27.1977 33.286 5.00833 28.0219C5.17805 19.2225 5.41232 14.3946 6 6C24.4846 3.32379 37.1594 3.34113 57.2017 5.91739C57.6691 5.97747 58.036 6.35753 58.074 6.82725C58.7239 14.8606 58.9525 19.6356 59.0083 28.0219Z" fill="url(#paint0_linear_10_6)"/>
<rect x="7.50833" y="7.52193" width="49" height="49" rx="3.5" stroke="white" stroke-opacity="0.75"/>
<rect x="8.00833" y="8.02193" width="48" height="48" rx="3" fill="url(#paint1_linear_10_6)"/>
<rect x="8.50833" y="8.52193" width="47" height="47" rx="2.5" stroke="black" stroke-opacity="0.5"/>
<mask id="path-6-inside-1_10_6" fill="white">
<path fill-rule="evenodd" clip-rule="evenodd" d="M7.70335 5.83588C26.5651 4.70839 36.7665 4.7978 56.2151 5.87187C57.2196 5.92734 58.0312 6.72986 58.0975 7.73235C59.3502 26.6622 59.3462 36.8737 58.1725 56.3285C58.1121 57.3287 57.3104 58.1341 56.3112 58.1989C37.1206 59.443 26.8719 59.3843 7.72245 58.1924C6.71706 58.1298 5.91023 57.3185 5.85314 56.3124C4.73743 36.6524 4.69202 26.4214 5.83285 7.70431C5.89396 6.70167 6.70074 5.89581 7.70335 5.83588ZM4.8347 7.64347C4.92658 6.13606 6.13616 4.92778 7.64368 4.83766C26.5493 3.70755 36.7895 3.79754 56.2703 4.87339C57.7788 4.9567 58.9956 6.15876 59.0953 7.66632C60.351 26.6405 60.3468 36.8941 59.1707 56.3887C59.08 57.8917 57.8785 59.0994 56.3759 59.1968C37.1399 60.4438 26.8488 60.3848 7.66032 59.1904C6.14932 59.0964 4.94052 57.8805 4.85474 56.369C3.73707 36.6743 3.69123 26.4039 4.8347 7.64347Z"/>
</mask>
<path fill-rule="evenodd" clip-rule="evenodd" d="M7.70335 5.83588C26.5651 4.70839 36.7665 4.7978 56.2151 5.87187C57.2196 5.92734 58.0312 6.72986 58.0975 7.73235C59.3502 26.6622 59.3462 36.8737 58.1725 56.3285C58.1121 57.3287 57.3104 58.1341 56.3112 58.1989C37.1206 59.443 26.8719 59.3843 7.72245 58.1924C6.71706 58.1298 5.91023 57.3185 5.85314 56.3124C4.73743 36.6524 4.69202 26.4214 5.83285 7.70431C5.89396 6.70167 6.70074 5.89581 7.70335 5.83588ZM4.8347 7.64347C4.92658 6.13606 6.13616 4.92778 7.64368 4.83766C26.5493 3.70755 36.7895 3.79754 56.2703 4.87339C57.7788 4.9567 58.9956 6.15876 59.0953 7.66632C60.351 26.6405 60.3468 36.8941 59.1707 56.3887C59.08 57.8917 57.8785 59.0994 56.3759 59.1968C37.1399 60.4438 26.8488 60.3848 7.66032 59.1904C6.14932 59.0964 4.94052 57.8805 4.85474 56.369C3.73707 36.6743 3.69123 26.4039 4.8347 7.64347Z" fill="#F5F5F5" fill-opacity="0.1"/>
<path d="M56.2151 5.87187L56.16 6.87035L56.2151 5.87187ZM7.70335 5.83588L7.76302 6.8341L7.70335 5.83588ZM58.0975 7.73235L57.0997 7.79839V7.79839L58.0975 7.73235ZM58.1725 56.3285L57.1743 56.2682L58.1725 56.3285ZM56.3112 58.1989L56.3759 59.1968L56.3112 58.1989ZM7.72245 58.1924L7.66032 59.1904H7.66032L7.72245 58.1924ZM5.85314 56.3124L6.85153 56.2557L5.85314 56.3124ZM5.83285 7.70431L6.83099 7.76515L5.83285 7.70431ZM7.64368 4.83766L7.70335 5.83588L7.64368 4.83766ZM4.8347 7.64347L3.83655 7.58264L4.8347 7.64347ZM56.2703 4.87339L56.2151 5.87187L56.2703 4.87339ZM59.0953 7.66632L58.0975 7.73235V7.73235L59.0953 7.66632ZM59.1707 56.3887L58.1725 56.3285L59.1707 56.3887ZM56.3759 59.1968L56.3112 58.1989H56.3112L56.3759 59.1968ZM7.66032 59.1904L7.72245 58.1924H7.72245L7.66032 59.1904ZM4.85474 56.369L3.85635 56.4257L4.85474 56.369ZM56.2703 4.87339C36.7895 3.79754 26.5493 3.70755 7.64368 4.83766L7.76302 6.8341C26.5809 5.70923 36.7435 5.79805 56.16 6.87035L56.2703 4.87339ZM59.0953 7.66632C58.9956 6.15885 57.7789 4.95671 56.2703 4.87339L56.16 6.87035C56.6603 6.89798 57.0668 7.30088 57.0997 7.79839L59.0953 7.66632ZM59.1707 56.3887C60.3468 36.8941 60.351 26.6405 59.0953 7.66632L57.0997 7.79839C58.3495 26.684 58.3456 36.8532 57.1743 56.2682L59.1707 56.3887ZM56.3759 59.1968C57.8784 59.0994 59.08 57.8918 59.1707 56.3887L57.1743 56.2682C57.1443 56.7656 56.7424 57.1689 56.2465 57.201L56.3759 59.1968ZM7.66032 59.1904C26.8488 60.3848 37.1399 60.4438 56.3759 59.1968L56.2465 57.201C37.1013 58.4421 26.8951 58.3838 7.78457 57.1943L7.66032 59.1904ZM4.85475 56.369C4.94052 57.8806 6.14934 59.0964 7.66032 59.1904L7.78457 57.1943C7.28478 57.1632 6.87994 56.7563 6.85153 56.2557L4.85475 56.369ZM4.8347 7.64347C3.69123 26.4039 3.73707 36.6743 4.85475 56.369L6.85153 56.2557C5.7378 36.6305 5.6928 26.439 6.83099 7.76515L4.8347 7.64347ZM7.64368 4.83766C6.13617 4.92778 4.92658 6.13605 4.8347 7.64347L6.83099 7.76515C6.86134 7.26729 7.26532 6.86385 7.76302 6.8341L7.64368 4.83766ZM7.58401 3.83944C5.57158 3.95974 3.9592 5.57045 3.83655 7.58264L5.83285 7.70431C5.89396 6.70167 6.70074 5.89581 7.70335 5.83588L7.58401 3.83944ZM56.3254 3.87491C36.8125 2.79729 26.5336 2.70671 7.58401 3.83944L7.70335 5.83588C26.5651 4.70839 36.7665 4.7978 56.2151 5.87187L56.3254 3.87491ZM60.0932 7.60029C59.96 5.58767 58.338 3.98606 56.3254 3.87491L56.2151 5.87187C57.2196 5.92734 58.0312 6.72986 58.0975 7.73235L60.0932 7.60029ZM60.1688 56.4489C61.3474 36.9146 61.3517 26.6187 60.0932 7.60029L58.0975 7.73235C59.3502 26.6622 59.3462 36.8737 58.1725 56.3285L60.1688 56.4489ZM56.4406 60.1947C58.4466 60.0647 60.0478 58.4548 60.1688 56.4489L58.1725 56.3285C58.1121 57.3287 57.3104 58.1341 56.3112 58.1989L56.4406 60.1947ZM7.5982 60.1885C26.8256 61.3853 37.1593 61.4446 56.4406 60.1947L56.3112 58.1989C37.1206 59.4429 26.8719 59.3843 7.72245 58.1924L7.5982 60.1885ZM3.85635 56.4257C3.97081 58.4426 5.58157 60.063 7.5982 60.1885L7.72245 58.1924C6.71706 58.1298 5.91023 57.3185 5.85314 56.3124L3.85635 56.4257ZM3.83655 7.58264C2.69044 26.3863 2.7367 36.6962 3.85635 56.4257L5.85314 56.3124C4.73743 36.6524 4.69202 26.4214 5.83285 7.70431L3.83655 7.58264Z" fill="url(#paint2_linear_10_6)" mask="url(#path-6-inside-1_10_6)"/>
<defs>
<filter id="filter0_d_10_6" x="1.8" y="1.83908" width="62.0451" height="62.0702" filterUnits="userSpaceOnUse" color-interpolation-filters="sRGB">
<feFlood flood-opacity="0" result="BackgroundImageFix"/>
<feColorMatrix in="SourceAlpha" type="matrix" values="0 0 0 0 0 0 0 0 0 0 0 0 0 0 0 0 0 0 127 0" result="hardAlpha"/>
<feOffset dx="0.8" dy="0.8"/>
<feGaussianBlur stdDeviation="1"/>
<feComposite in2="hardAlpha" operator="out"/>
<feColorMatrix type="matrix" values="0 0 0 0 0 0 0 0 0 0 0 0 0 0 0 0 0 0 0.75 0"/>
<feBlend mode="normal" in2="BackgroundImageFix" result="effect1_dropShadow_10_6"/>
<feBlend mode="normal" in="SourceGraphic" in2="effect1_dropShadow_10_6" result="shape"/>
</filter>
<linearGradient id="paint0_linear_10_6" x1="32.0083" y1="4.9884" x2="32.0083" y2="31.9932" gradientUnits="userSpaceOnUse">
<stop stop-color="white" stop-opacity="0.75"/>
<stop offset="1" stop-color="white" stop-opacity="0.1"/>
</linearGradient>
<linearGradient id="paint1_linear_10_6" x1="8.00833" y1="8.02193" x2="56.0083" y2="56.0219" gradientUnits="userSpaceOnUse">
<stop offset="0.401538" stop-color="white" stop-opacity="0.1"/>
<stop offset="0.504235" stop-color="white" stop-opacity="0"/>
</linearGradient>
<linearGradient id="paint2_linear_10_6" x1="59.9052" y1="62.0401" x2="3.87663" y2="6.14951" gradientUnits="userSpaceOnUse">
<stop offset="0.435" stop-color="#14C2DC"/>
<stop offset="0.535" stop-color="white"/>
</linearGradient>
</defs>
</svg>
