<svg width="5" height="40" viewBox="0 0 5 40" fill="none" xmlns="http://www.w3.org/2000/svg">
<mask id="mask0_22_1166" style="mask-type:alpha" maskUnits="userSpaceOnUse" x="0" y="0" width="5" height="40">
<rect width="5" height="40" fill="#D9D9D9"/>
</mask>
<g mask="url(#mask0_22_1166)">
<g opacity="0.89">
<rect x="-53" y="2" width="56" height="36" rx="1" fill="url(#paint0_radial_22_1166)"/>
<mask id="mask1_22_1166" style="mask-type:alpha" maskUnits="userSpaceOnUse" x="-53" y="2" width="56" height="30">
<path d="M3 3C3 2.44772 2.55228 2 2 2H-52C-52.5523 2 -53 2.44772 -53 3V31.7344C-50.8438 28.4062 -44.75 21 -30.5 15C-13.5294 7.8545 0.249977 6.69238 3 6.52564V3Z" fill="white"/>
</mask>
<g mask="url(#mask1_22_1166)">
<ellipse cx="-45.5" cy="1.5" rx="46.5" ry="25.5" fill="url(#paint1_radial_22_1166)"/>
</g>
<path d="M2 38V39C3.10457 39 4 38.1046 4 37H3C3 37.5523 2.55228 38 2 38Z" fill="url(#paint2_linear_22_1166)"/>
<rect y="38" width="2" height="1" fill="url(#paint3_linear_22_1166)"/>
<rect x="3" y="3" width="1" height="34" fill="url(#paint4_linear_22_1166)"/>
<path d="M3 3H4C4 1.89543 3.10457 1 2 1V2C2.55228 2 3 2.44772 3 3Z" fill="url(#paint5_linear_22_1166)"/>
<rect y="1" width="2" height="1" fill="url(#paint6_linear_22_1166)"/>
<path d="M4 3H5C5 1.34315 3.65685 0 2 0V1C3.10457 1 4 1.89543 4 3Z" fill="url(#paint7_linear_22_1166)"/>
<path d="M2 39V40C3.65685 40 5 38.6569 5 37H4C4 38.1046 3.10457 39 2 39Z" fill="black" fill-opacity="0.45"/>
<rect y="39" width="2" height="1" fill="black" fill-opacity="0.45"/>
<rect x="4" y="3" width="1" height="34" fill="url(#paint8_linear_22_1166)"/>
<rect width="2" height="1" fill="url(#paint9_linear_22_1166)"/>
</g>
</g>
<defs>
<radialGradient id="paint0_radial_22_1166" cx="0" cy="0" r="1" gradientUnits="userSpaceOnUse" gradientTransform="translate(1.49999 2.49999) rotate(135) scale(22.6274 21.3332)">
<stop stop-color="white" stop-opacity="0.24"/>
<stop offset="1" stop-color="white" stop-opacity="0.01"/>
</radialGradient>
<radialGradient id="paint1_radial_22_1166" cx="0" cy="0" r="1" gradientUnits="userSpaceOnUse" gradientTransform="translate(-45.5 1.5) rotate(90) scale(25.5 46.5)">
<stop stop-color="white" stop-opacity="0.73"/>
<stop offset="1" stop-color="white" stop-opacity="0"/>
</radialGradient>
<linearGradient id="paint2_linear_22_1166" x1="3.5" y1="37.5" x2="2.5" y2="38.5" gradientUnits="userSpaceOnUse">
<stop stop-color="white" stop-opacity="0.44"/>
<stop offset="1" stop-color="white" stop-opacity="0.42"/>
</linearGradient>
<linearGradient id="paint3_linear_22_1166" x1="0.5" y1="38.5" x2="1.5" y2="38.5" gradientUnits="userSpaceOnUse">
<stop stop-color="white" stop-opacity="0.47"/>
<stop offset="1" stop-color="white" stop-opacity="0.42"/>
</linearGradient>
<linearGradient id="paint4_linear_22_1166" x1="3.5" y1="3.5" x2="3.5" y2="36.5" gradientUnits="userSpaceOnUse">
<stop stop-color="white" stop-opacity="0.38"/>
<stop offset="0.848822" stop-color="white" stop-opacity="0.47"/>
<stop offset="0.967625" stop-color="white" stop-opacity="0.47"/>
<stop offset="1" stop-color="white" stop-opacity="0.44"/>
</linearGradient>
<linearGradient id="paint5_linear_22_1166" x1="2.5" y1="1.5" x2="3.5" y2="2.5" gradientUnits="userSpaceOnUse">
<stop stop-color="white" stop-opacity="0.42"/>
<stop offset="1" stop-color="white" stop-opacity="0.38"/>
</linearGradient>
<linearGradient id="paint6_linear_22_1166" x1="0.5" y1="1.5" x2="1.5" y2="1.5" gradientUnits="userSpaceOnUse">
<stop stop-color="white" stop-opacity="0.43"/>
<stop offset="1" stop-color="white" stop-opacity="0.42"/>
</linearGradient>
<linearGradient id="paint7_linear_22_1166" x1="2.5" y1="0.5" x2="4.5" y2="2.5" gradientUnits="userSpaceOnUse">
<stop stop-opacity="0.44"/>
<stop offset="1" stop-opacity="0.38"/>
</linearGradient>
<linearGradient id="paint8_linear_22_1166" x1="4.5" y1="3.5" x2="4.5" y2="36.5" gradientUnits="userSpaceOnUse">
<stop stop-opacity="0.38"/>
<stop offset="1" stop-opacity="0.45"/>
</linearGradient>
<linearGradient id="paint9_linear_22_1166" x1="0.5" y1="0.5" x2="1.5" y2="0.5" gradientUnits="userSpaceOnUse">
<stop stop-opacity="0.45"/>
<stop offset="1" stop-opacity="0.44"/>
</linearGradient>
</defs>
</svg>
