<svg width="60" height="40" viewBox="0 0 60 40" fill="none" xmlns="http://www.w3.org/2000/svg">
<rect x="2" y="2" width="56" height="36" rx="1" fill="url(#paint0_radial_22_1224)"/>
<rect x="2" y="2" width="56" height="36" rx="1" fill="url(#paint1_linear_22_1224)"/>
<mask id="mask0_22_1224" style="mask-type:alpha" maskUnits="userSpaceOnUse" x="2" y="2" width="56" height="30">
<path d="M58 3C58 2.44772 57.5523 2 57 2H3C2.44772 2 2 2.44772 2 3V31.7344C4.15625 28.4062 10.25 21 24.5 15C41.4706 7.8545 55.25 6.69238 58 6.52564V3Z" fill="white"/>
</mask>
<g mask="url(#mask0_22_1224)">
<ellipse cx="9.5" cy="1.5" rx="46.5" ry="25.5" fill="url(#paint2_radial_22_1224)"/>
</g>
<path d="M57 38V39C58.1046 39 59 38.1046 59 37H58C58 37.5523 57.5523 38 57 38Z" fill="white" fill-opacity="0.9"/>
<rect x="3" y="38" width="54" height="1" fill="url(#paint3_linear_22_1224)"/>
<path d="M2 37H1C1 38.1046 1.89543 39 3 39V38C2.44772 38 2 37.5523 2 37Z" fill="white" fill-opacity="0.83"/>
<rect x="58" y="3" width="1" height="34" fill="url(#paint4_linear_22_1224)"/>
<rect x="1" y="3" width="1" height="34" fill="url(#paint5_linear_22_1224)"/>
<path d="M58 3H59C59 1.89543 58.1046 1 57 1V2C57.5523 2 58 2.44772 58 3Z" fill="white" fill-opacity="0.88"/>
<rect x="3" y="1" width="54" height="1" fill="url(#paint6_linear_22_1224)"/>
<path d="M3 2V1C1.89543 1 1 1.89543 1 3H2C2 2.44772 2.44771 2 3 2Z" fill="white"/>
<path d="M57 39V40C58.6569 40 60 38.6569 60 37H59C59 38.1046 58.1046 39 57 39Z" fill="black" fill-opacity="0.6"/>
<rect x="3" y="39" width="54" height="1" fill="url(#paint7_linear_22_1224)"/>
<path d="M1 37H0C0 38.6569 1.34315 40 3 40V39C1.89543 39 1 38.1046 1 37Z" fill="url(#paint8_linear_22_1224)"/>
<rect x="59" y="3" width="1" height="34" fill="url(#paint9_linear_22_1224)"/>
<rect y="3" width="1" height="34" fill="url(#paint10_linear_22_1224)"/>
<path d="M59 3H60C60 1.34315 58.6569 0 57 0V1C58.1046 1 59 1.89543 59 3Z" fill="url(#paint11_linear_22_1224)"/>
<rect x="3" width="54" height="1" fill="url(#paint12_linear_22_1224)"/>
<path d="M3 1V0C1.34315 0 0 1.34315 0 3H1C1 1.89543 1.89543 1 3 1Z" fill="black" fill-opacity="0.8"/>
<defs>
<radialGradient id="paint0_radial_22_1224" cx="0" cy="0" r="1" gradientUnits="userSpaceOnUse" gradientTransform="translate(56.5 2.49999) rotate(135) scale(22.6274 21.3332)">
<stop stop-color="white" stop-opacity="0.31"/>
<stop offset="1" stop-color="white" stop-opacity="0.08"/>
</radialGradient>
<linearGradient id="paint1_linear_22_1224" x1="30" y1="2.5" x2="30" y2="37.5" gradientUnits="userSpaceOnUse">
<stop stop-color="white" stop-opacity="0.5"/>
<stop offset="0.299846" stop-color="white" stop-opacity="0.35"/>
<stop offset="0.68" stop-color="white" stop-opacity="0.35"/>
<stop offset="1" stop-color="white" stop-opacity="0.5"/>
</linearGradient>
<radialGradient id="paint2_radial_22_1224" cx="0" cy="0" r="1" gradientUnits="userSpaceOnUse" gradientTransform="translate(9.5 1.5) rotate(90) scale(25.5 46.5)">
<stop stop-color="white" stop-opacity="0.73"/>
<stop offset="1" stop-color="white" stop-opacity="0"/>
</radialGradient>
<linearGradient id="paint3_linear_22_1224" x1="12.5" y1="38.5" x2="43.5" y2="38.5" gradientUnits="userSpaceOnUse">
<stop stop-color="white" stop-opacity="0.83"/>
<stop offset="1" stop-color="white" stop-opacity="0.9"/>
</linearGradient>
<linearGradient id="paint4_linear_22_1224" x1="58.5" y1="3.5" x2="58.5" y2="36.5" gradientUnits="userSpaceOnUse">
<stop stop-color="white" stop-opacity="0.88"/>
<stop offset="1" stop-color="white" stop-opacity="0.9"/>
</linearGradient>
<linearGradient id="paint5_linear_22_1224" x1="1.5" y1="10.5" x2="1.5" y2="31.5" gradientUnits="userSpaceOnUse">
<stop stop-color="white"/>
<stop offset="1" stop-color="white" stop-opacity="0.83"/>
</linearGradient>
<linearGradient id="paint6_linear_22_1224" x1="17.5" y1="1.5" x2="56.5" y2="1.5" gradientUnits="userSpaceOnUse">
<stop stop-color="white"/>
<stop offset="1" stop-color="white" stop-opacity="0.88"/>
</linearGradient>
<linearGradient id="paint7_linear_22_1224" x1="3.5" y1="39.5" x2="41.5" y2="39.5" gradientUnits="userSpaceOnUse">
<stop stop-opacity="0.45"/>
<stop offset="1" stop-opacity="0.6"/>
</linearGradient>
<linearGradient id="paint8_linear_22_1224" x1="0.5" y1="37.5" x2="2.5" y2="39.5" gradientUnits="userSpaceOnUse">
<stop stop-opacity="0.4"/>
<stop offset="1" stop-opacity="0.45"/>
</linearGradient>
<linearGradient id="paint9_linear_22_1224" x1="59.5" y1="3.5" x2="59.5" y2="36.5" gradientUnits="userSpaceOnUse">
<stop stop-opacity="0.49"/>
<stop offset="1" stop-opacity="0.6"/>
</linearGradient>
<linearGradient id="paint10_linear_22_1224" x1="0.5" y1="3.5" x2="0.5" y2="34.5" gradientUnits="userSpaceOnUse">
<stop stop-opacity="0.8"/>
<stop offset="1" stop-opacity="0.4"/>
</linearGradient>
<linearGradient id="paint11_linear_22_1224" x1="57.5" y1="0.5" x2="59.5" y2="2.5" gradientUnits="userSpaceOnUse">
<stop stop-opacity="0.58"/>
<stop offset="1" stop-opacity="0.49"/>
</linearGradient>
<linearGradient id="paint12_linear_22_1224" x1="21.5" y1="0.5" x2="56.5" y2="0.5" gradientUnits="userSpaceOnUse">
<stop stop-opacity="0.8"/>
<stop offset="1" stop-opacity="0.58"/>
</linearGradient>
</defs>
</svg>
