<?xml version="1.0" encoding="UTF-8" standalone="no"?>
<svg
   width="160"
   height="40"
   viewBox="0 0 160 40"
   fill="none"
   version="1.1"
   id="svg37"
   sodipodi:docname="task_active.svg"
   inkscape:version="1.3.2 (091e20ef0f, 2023-11-25, custom)"
   xmlns:inkscape="http://www.inkscape.org/namespaces/inkscape"
   xmlns:sodipodi="http://sodipodi.sourceforge.net/DTD/sodipodi-0.dtd"
   xmlns="http://www.w3.org/2000/svg"
   xmlns:svg="http://www.w3.org/2000/svg">
  <sodipodi:namedview
     id="namedview37"
     pagecolor="#ffffff"
     bordercolor="#000000"
     borderopacity="0.25"
     inkscape:showpageshadow="2"
     inkscape:pageopacity="0.0"
     inkscape:pagecheckerboard="true"
     inkscape:deskcolor="#d1d1d1"
     showgrid="true"
     inkscape:zoom="12.929988"
     inkscape:cx="1.5854617"
     inkscape:cy="4.2923475"
     inkscape:window-width="1366"
     inkscape:window-height="706"
     inkscape:window-x="0"
     inkscape:window-y="0"
     inkscape:window-maximized="1"
     inkscape:current-layer="svg37">
    <inkscape:grid
       id="grid37"
       units="px"
       originx="0"
       originy="0"
       spacingx="1"
       spacingy="1"
       empcolor="#0099e5"
       empopacity="0.30196078"
       color="#0099e5"
       opacity="0.14901961"
       empspacing="5"
       dotted="false"
       gridanglex="30"
       gridanglez="30"
       visible="true" />
  </sodipodi:namedview>
  <rect
     x="2.0000062"
     y="2"
     width="156"
     height="36"
     rx="1"
     fill="url(#paint0_radial_22_1224)"
     id="rect1"
     style="fill:url(#paint0_radial_22_1224);stroke-width:1"
     ry="1" />
  <rect
     x="2.0000062"
     y="2"
     width="156"
     height="36"
     rx="1"
     fill="url(#paint1_linear_22_1224)"
     id="rect2"
     style="fill:url(#paint1_linear_22_1224);stroke-width:1"
     ry="1" />
  <mask
     id="mask0_22_1224"
     maskUnits="userSpaceOnUse"
     x="2"
     y="2"
     width="56"
     height="30">
    <path
       d="M 58,3 C 58,2.44772 57.5523,2 57,2 H 3 C 2.44772,2 2,2.44772 2,3 V 31.7344 C 4.15625,28.4062 10.25,21 24.5,15 41.4706,7.8545 55.25,6.69238 58,6.52564 Z"
       fill="#ffffff"
       id="path2" />
  </mask>
  <g
     mask="url(#mask0_22_1224)"
     id="g2"
     transform="matrix(2.7857146,0,0,1,-3.5714231,0)"
     style="stroke-width:0.599145">
    <ellipse
       cx="9.5"
       cy="1.5"
       rx="46.5"
       ry="25.5"
       fill="url(#paint2_radial_22_1224)"
       id="ellipse2"
       style="fill:url(#paint2_radial_22_1224);stroke-width:0.599145" />
  </g>
  <path
     d="m 157,38 v 1 c 1.1046,0 2,-0.8954 2,-2 h -1 c 0,0.5523 -0.4477,1 -1,1 z"
     fill="#ffffff"
     fill-opacity="0.9"
     id="path3" />
  <rect
     x="3.0000062"
     y="38"
     width="154"
     height="1"
     fill="url(#paint3_linear_22_1224)"
     id="rect3"
     style="fill:url(#paint3_linear_22_1224);stroke-width:1" />
  <path
     d="M 2,37 H 1 c 0,1.1046 0.89543,2 2,2 V 38 C 2.44772,38 2,37.5523 2,37 Z"
     fill="#ffffff"
     fill-opacity="0.83"
     id="path4" />
  <rect
     x="158"
     y="3"
     width="1"
     height="34"
     fill="url(#paint4_linear_22_1224)"
     id="rect4"
     style="fill:url(#paint4_linear_22_1224)" />
  <rect
     x="1"
     y="3"
     width="1"
     height="34"
     fill="url(#paint5_linear_22_1224)"
     id="rect5"
     style="fill:url(#paint5_linear_22_1224)"
     inkscape:label="rect5" />
  <path
     d="m 158,3 h 1 c 0,-1.10457 -0.8954,-2 -2,-2 v 1 c 0.5523,0 1,0.44772 1,1 z"
     fill="#ffffff"
     fill-opacity="0.88"
     id="path5"
     inkscape:label="path5" />
  <rect
     x="3.0000062"
     y="1"
     width="154"
     height="1"
     fill="url(#paint6_linear_22_1224)"
     id="rect6"
     style="fill:url(#paint6_linear_22_1224);stroke-width:1" />
  <path
     d="M 3,2 V 1 C 1.89543,1 1,1.89543 1,3 H 2 C 2,2.44772 2.44771,2 3,2 Z"
     fill="#ffffff"
     id="path6" />
  <path
     d="m 157,39 v 1 c 1.6569,0 3,-1.3431 3,-3 h -1 c 0,1.1046 -0.8954,2 -2,2 z"
     fill="#000000"
     fill-opacity="0.6"
     id="path7" />
  <rect
     x="3.0000062"
     y="39"
     width="154"
     height="1"
     fill="url(#paint7_linear_22_1224)"
     id="rect7"
     style="fill:url(#paint7_linear_22_1224);stroke-width:1" />
  <path
     d="M 1,37 H 0 c 0,1.6569 1.34315,3 3,3 V 39 C 1.89543,39 1,38.1046 1,37 Z"
     fill="url(#paint8_linear_22_1224)"
     id="path8"
     style="fill:url(#paint8_linear_22_1224)" />
  <rect
     x="159"
     y="3"
     width="1"
     height="34"
     fill="url(#paint9_linear_22_1224)"
     id="rect8"
     style="fill:url(#paint9_linear_22_1224)" />
  <rect
     y="3"
     width="1"
     height="34"
     fill="url(#paint10_linear_22_1224)"
     id="rect9"
     x="0"
     style="fill:url(#paint10_linear_22_1224)" />
  <path
     d="m 159,3 h 1 c 0,-1.65685 -1.3431,-3 -3,-3 v 1 c 1.1046,0 2,0.89543 2,2 z"
     fill="url(#paint11_linear_22_1224)"
     id="path9"
     style="fill:url(#paint11_linear_22_1224)" />
  <rect
     x="3.0000062"
     width="154"
     height="1"
     fill="url(#paint12_linear_22_1224)"
     id="rect10"
     y="0"
     style="fill:url(#paint12_linear_22_1224);stroke-width:1" />
  <path
     d="M 3,1 V 0 C 1.34315,0 0,1.34315 0,3 H 1 C 1,1.89543 1.89543,1 3,1 Z"
     fill="#000000"
     fill-opacity="0.8"
     id="path10" />
  <defs
     id="defs37">
    <radialGradient
       id="paint0_radial_22_1224"
       cx="0"
       cy="0"
       r="1"
       gradientUnits="userSpaceOnUse"
       gradientTransform="matrix(-15.999989,15.999988,-15.08485,-15.08485,56.499997,2.49999)">
      <stop
         stop-color="white"
         stop-opacity="0.31"
         id="stop10" />
      <stop
         offset="1"
         stop-color="white"
         stop-opacity="0.08"
         id="stop11" />
    </radialGradient>
    <linearGradient
       id="paint1_linear_22_1224"
       x1="30"
       y1="2.5"
       x2="30"
       y2="37.5"
       gradientUnits="userSpaceOnUse">
      <stop
         stop-color="white"
         stop-opacity="0.5"
         id="stop12" />
      <stop
         offset="0.299846"
         stop-color="white"
         stop-opacity="0.35"
         id="stop13" />
      <stop
         offset="0.68"
         stop-color="white"
         stop-opacity="0.35"
         id="stop14" />
      <stop
         offset="1"
         stop-color="white"
         stop-opacity="0.5"
         id="stop15" />
    </linearGradient>
    <radialGradient
       id="paint2_radial_22_1224"
       cx="0"
       cy="0"
       r="1"
       gradientUnits="userSpaceOnUse"
       gradientTransform="matrix(0,25.5,-16.692306,0,4.6923048,1.5)">
      <stop
         stop-color="white"
         stop-opacity="0.73"
         id="stop16" />
      <stop
         offset="1"
         stop-color="white"
         stop-opacity="0"
         id="stop17" />
    </radialGradient>
    <linearGradient
       id="paint3_linear_22_1224"
       x1="12.5"
       y1="38.5"
       x2="43.5"
       y2="38.5"
       gradientUnits="userSpaceOnUse">
      <stop
         stop-color="white"
         stop-opacity="0.83"
         id="stop18" />
      <stop
         offset="1"
         stop-color="white"
         stop-opacity="0.9"
         id="stop19" />
    </linearGradient>
    <linearGradient
       id="paint4_linear_22_1224"
       x1="58.5"
       y1="3.5"
       x2="58.5"
       y2="36.5"
       gradientUnits="userSpaceOnUse"
       gradientTransform="translate(100)">
      <stop
         stop-color="white"
         stop-opacity="0.88"
         id="stop20" />
      <stop
         offset="1"
         stop-color="white"
         stop-opacity="0.9"
         id="stop21" />
    </linearGradient>
    <linearGradient
       id="paint5_linear_22_1224"
       x1="1.5"
       y1="10.5"
       x2="1.5"
       y2="31.5"
       gradientUnits="userSpaceOnUse">
      <stop
         stop-color="white"
         id="stop22" />
      <stop
         offset="1"
         stop-color="white"
         stop-opacity="0.83"
         id="stop23" />
    </linearGradient>
    <linearGradient
       id="paint6_linear_22_1224"
       x1="17.5"
       y1="1.5"
       x2="56.5"
       y2="1.5"
       gradientUnits="userSpaceOnUse">
      <stop
         stop-color="white"
         id="stop24" />
      <stop
         offset="1"
         stop-color="white"
         stop-opacity="0.88"
         id="stop25" />
    </linearGradient>
    <linearGradient
       id="paint7_linear_22_1224"
       x1="3.5"
       y1="39.5"
       x2="41.5"
       y2="39.5"
       gradientUnits="userSpaceOnUse">
      <stop
         stop-opacity="0.45"
         id="stop26" />
      <stop
         offset="1"
         stop-opacity="0.6"
         id="stop27" />
    </linearGradient>
    <linearGradient
       id="paint8_linear_22_1224"
       x1="0.5"
       y1="37.5"
       x2="2.5"
       y2="39.5"
       gradientUnits="userSpaceOnUse">
      <stop
         stop-opacity="0.4"
         id="stop28" />
      <stop
         offset="1"
         stop-opacity="0.45"
         id="stop29" />
    </linearGradient>
    <linearGradient
       id="paint9_linear_22_1224"
       x1="59.5"
       y1="3.5"
       x2="59.5"
       y2="36.5"
       gradientUnits="userSpaceOnUse"
       gradientTransform="translate(100)">
      <stop
         stop-opacity="0.49"
         id="stop30" />
      <stop
         offset="1"
         stop-opacity="0.6"
         id="stop31" />
    </linearGradient>
    <linearGradient
       id="paint10_linear_22_1224"
       x1="0.5"
       y1="3.5"
       x2="0.5"
       y2="34.5"
       gradientUnits="userSpaceOnUse">
      <stop
         stop-opacity="0.8"
         id="stop32" />
      <stop
         offset="1"
         stop-opacity="0.4"
         id="stop33" />
    </linearGradient>
    <linearGradient
       id="paint11_linear_22_1224"
       x1="57.5"
       y1="0.5"
       x2="59.5"
       y2="2.5"
       gradientUnits="userSpaceOnUse"
       gradientTransform="translate(100)">
      <stop
         stop-opacity="0.58"
         id="stop34" />
      <stop
         offset="1"
         stop-opacity="0.49"
         id="stop35" />
    </linearGradient>
    <linearGradient
       id="paint12_linear_22_1224"
       x1="21.5"
       y1="0.5"
       x2="56.5"
       y2="0.5"
       gradientUnits="userSpaceOnUse">
      <stop
         stop-opacity="0.8"
         id="stop36" />
      <stop
         offset="1"
         stop-opacity="0.58"
         id="stop37" />
    </linearGradient>
  </defs>
</svg>
