<svg width="60" height="40" viewBox="0 0 60 40" fill="none" xmlns="http://www.w3.org/2000/svg">
<rect x="2" y="2" width="56" height="36" rx="1" fill="url(#paint0_linear_22_1204)"/>
<path d="M57 38V39C58.1046 39 59 38.1046 59 37H58C58 37.5523 57.5523 38 57 38Z" fill="url(#paint1_linear_22_1204)"/>
<rect x="3" y="38" width="54" height="1" fill="url(#paint2_linear_22_1204)"/>
<path d="M2 37H1C1 38.1046 1.89543 39 3 39V38C2.44772 38 2 37.5523 2 37Z" fill="url(#paint3_linear_22_1204)"/>
<rect x="58" y="3" width="1" height="34" fill="url(#paint4_linear_22_1204)"/>
<rect x="1" y="3" width="1" height="34" fill="url(#paint5_linear_22_1204)"/>
<path d="M58 3H59C59 1.89543 58.1046 1 57 1V2C57.5523 2 58 2.44772 58 3Z" fill="url(#paint6_linear_22_1204)"/>
<rect x="3" y="1" width="54" height="1" fill="url(#paint7_linear_22_1204)"/>
<path d="M3 2V1C1.89543 1 1 1.89543 1 3H2C2 2.44772 2.44771 2 3 2Z" fill="url(#paint8_linear_22_1204)"/>
<path d="M57 39V40C58.6569 40 60 38.6569 60 37H59C59 38.1046 58.1046 39 57 39Z" fill="black" fill-opacity="0.29"/>
<rect x="3" y="39" width="54" height="1" fill="url(#paint9_linear_22_1204)"/>
<path d="M1 37H0C0 38.6569 1.34315 40 3 40V39C1.89543 39 1 38.1046 1 37Z" fill="url(#paint10_linear_22_1204)"/>
<rect x="59" y="3" width="1" height="34" fill="url(#paint11_linear_22_1204)"/>
<rect y="3" width="1" height="34" fill="url(#paint12_linear_22_1204)"/>
<path d="M59 3H60C60 1.34315 58.6569 0 57 0V1C58.1046 1 59 1.89543 59 3Z" fill="black" fill-opacity="0.43"/>
<rect x="3" width="54" height="1" fill="url(#paint13_linear_22_1204)"/>
<path d="M3 1V0C1.34315 0 0 1.34315 0 3H1C1 1.89543 1.89543 1 3 1Z" fill="black" fill-opacity="0.29"/>
<defs>
<linearGradient id="paint0_linear_22_1204" x1="30" y1="2.5" x2="30" y2="37.5" gradientUnits="userSpaceOnUse">
<stop stop-color="#FFF119" stop-opacity="0.85"/>
<stop offset="1" stop-color="#FF6E01" stop-opacity="0.76"/>
</linearGradient>
<linearGradient id="paint1_linear_22_1204" x1="58.5" y1="37.5" x2="57.5" y2="38.5" gradientUnits="userSpaceOnUse">
<stop stop-color="#FFD84B" stop-opacity="0.92"/>
<stop offset="1" stop-color="#FFD649" stop-opacity="0.92"/>
</linearGradient>
<linearGradient id="paint2_linear_22_1204" x1="3.5" y1="38.5" x2="56.5" y2="38.5" gradientUnits="userSpaceOnUse">
<stop stop-color="#FFBB54" stop-opacity="0.87"/>
<stop offset="1" stop-color="#FFD649" stop-opacity="0.92"/>
</linearGradient>
<linearGradient id="paint3_linear_22_1204" x1="1.5" y1="37.5" x2="2.5" y2="38.5" gradientUnits="userSpaceOnUse">
<stop stop-color="#FFC05D" stop-opacity="0.89"/>
<stop offset="1" stop-color="#FFBB54" stop-opacity="0.87"/>
</linearGradient>
<linearGradient id="paint4_linear_22_1204" x1="58.5" y1="3.5" x2="58.5" y2="36.5" gradientUnits="userSpaceOnUse">
<stop stop-color="#FFF25E" stop-opacity="0.92"/>
<stop offset="1" stop-color="#FFD84B" stop-opacity="0.92"/>
</linearGradient>
<linearGradient id="paint5_linear_22_1204" x1="1.5" y1="3.5" x2="1.5" y2="36.5" gradientUnits="userSpaceOnUse">
<stop stop-color="#FFEB99" stop-opacity="0.95"/>
<stop offset="1" stop-color="#FFC05D" stop-opacity="0.89"/>
</linearGradient>
<linearGradient id="paint6_linear_22_1204" x1="57.5" y1="1.5" x2="58.5" y2="2.5" gradientUnits="userSpaceOnUse">
<stop stop-color="#FFF367" stop-opacity="0.93"/>
<stop offset="1" stop-color="#FFF25E" stop-opacity="0.92"/>
</linearGradient>
<linearGradient id="paint7_linear_22_1204" x1="3.5" y1="1.5" x2="56.5" y2="1.5" gradientUnits="userSpaceOnUse">
<stop stop-color="#FFED9E" stop-opacity="0.95"/>
<stop offset="1" stop-color="#FFF367" stop-opacity="0.93"/>
</linearGradient>
<linearGradient id="paint8_linear_22_1204" x1="2.5" y1="1.5" x2="1.5" y2="2.5" gradientUnits="userSpaceOnUse">
<stop stop-color="#FFED9E" stop-opacity="0.95"/>
<stop offset="1" stop-color="#FFEB99" stop-opacity="0.95"/>
</linearGradient>
<linearGradient id="paint9_linear_22_1204" x1="3.5" y1="39.5" x2="41.5" y2="39.5" gradientUnits="userSpaceOnUse">
<stop stop-opacity="0.36"/>
<stop offset="1" stop-opacity="0.29"/>
</linearGradient>
<linearGradient id="paint10_linear_22_1204" x1="0.5" y1="37.5" x2="2.5" y2="39.5" gradientUnits="userSpaceOnUse">
<stop stop-opacity="0.39"/>
<stop offset="1" stop-opacity="0.36"/>
</linearGradient>
<linearGradient id="paint11_linear_22_1204" x1="59.5" y1="3.5" x2="59.5" y2="36.5" gradientUnits="userSpaceOnUse">
<stop stop-opacity="0.43"/>
<stop offset="1" stop-opacity="0.29"/>
</linearGradient>
<linearGradient id="paint12_linear_22_1204" x1="0.5" y1="3.5" x2="0.5" y2="34.5" gradientUnits="userSpaceOnUse">
<stop stop-opacity="0.29"/>
<stop offset="1" stop-opacity="0.39"/>
</linearGradient>
<linearGradient id="paint13_linear_22_1204" x1="20.5" y1="0.5" x2="56.5" y2="0.5" gradientUnits="userSpaceOnUse">
<stop stop-opacity="0.29"/>
<stop offset="1" stop-opacity="0.43"/>
</linearGradient>
</defs>
</svg>
